<?xml version="1.0" standalone="no"?>
<!DOCTYPE svg PUBLIC "-//W3C//DTD SVG 20010904//EN"
 "http://www.w3.org/TR/2001/REC-SVG-20010904/DTD/svg10.dtd">
<svg version="1.0" xmlns="http://www.w3.org/2000/svg"
 width="1280.000000pt" height="1220.000000pt" viewBox="0 0 1280.000000 1220.000000"
 preserveAspectRatio="xMidYMid meet">
<metadata>
Created by potrace 1.15, written by Peter Selinger 2001-2017
</metadata>
<g transform="translate(0.000000,1220.000000) scale(0.100000,-0.100000)"
fill="#000000" stroke="none">
<path d="M3005 12043 c-159 -85 -300 -160 -312 -166 -22 -12 -16 -24 283 -522
168 -281 309 -513 313 -517 5 -6 498 246 516 264 5 5 -491 1078 -503 1089 -4
4 -137 -63 -297 -148z"/>
<path d="M102 12148 c-28 -35 -90 -428 -98 -628 -11 -242 -57 -93 506 -1635
241 -661 433 -1187 939 -2573 128 -349 241 -653 252 -675 34 -68 105 -162 154
-205 55 -48 62 -41 -110 -102 -218 -77 -354 -157 -458 -270 -76 -81 -75 -94
11 -120 99 -32 247 -37 340 -13 39 11 72 18 72 16 0 -2 -11 -21 -25 -43 -38
-61 -73 -145 -97 -234 -30 -114 -30 -316 1 -431 46 -170 157 -350 280 -452
123 -102 246 -161 396 -192 76 -15 90 -21 99 -42 41 -100 81 -179 105 -204 20
-20 36 -56 51 -110 71 -265 241 -514 414 -606 l44 -23 183 78 c842 356 1230
518 1234 515 2 -3 -10 -87 -26 -189 -61 -387 -71 -451 -104 -665 -19 -121 -75
-481 -125 -800 -50 -319 -109 -694 -130 -832 -22 -139 -58 -369 -80 -510 -95
-603 -110 -703 -110 -726 0 -21 18 -36 117 -95 313 -185 549 -286 801 -341
453 -100 916 -8 1383 275 134 81 206 131 212 148 3 8 49 198 102 423 53 224
99 415 102 423 3 8 11 -14 19 -49 95 -452 468 -773 924 -798 58 -3 137 -1 175
5 67 10 404 63 750 117 198 31 284 55 391 105 264 127 458 368 535 667 32 123
32 329 1 456 -47 188 -128 334 -267 477 l-83 85 -26 280 c-43 444 -64 542
-153 720 -57 113 -112 192 -211 297 l-79 83 -27 248 c-16 137 -26 251 -23 254
3 2 207 -118 454 -268 246 -149 525 -319 619 -375 184 -112 192 -115 296 -93
272 56 507 370 683 909 26 80 48 150 50 155 1 6 29 19 61 29 225 70 415 235
519 450 68 139 88 225 88 386 1 113 -3 149 -23 220 -26 95 -58 171 -95 230
-14 22 -25 41 -25 43 0 2 30 -5 68 -14 111 -29 236 -23 365 18 62 20 61 37
-10 113 -104 113 -240 193 -458 270 -172 61 -165 54 -110 102 49 43 120 137
153 204 21 40 95 244 692 1879 160 440 395 1084 522 1430 535 1464 496 1340
485 1575 -11 215 -73 599 -102 629 -12 12 -26 7 -101 -36 -278 -161 -441 -323
-538 -535 -19 -40 -165 -433 -326 -873 -319 -876 -631 -1730 -1080 -2960 -183
-502 -298 -830 -307 -880 -11 -55 -14 -109 -10 -172 l6 -91 -107 44 c-259 109
-421 136 -581 99 -70 -17 -91 -29 -91 -52 0 -28 201 -216 268 -251 34 -18 62
-35 62 -36 0 -2 -18 -16 -39 -30 -22 -15 -51 -45 -66 -65 l-26 -38 -157 -21
c-313 -42 -371 -47 -617 -47 -263 0 -364 11 -515 57 -70 21 -90 38 -90 75 0
18 10 28 43 42 564 245 1021 604 1302 1021 74 110 175 319 213 440 99 312 101
627 8 936 -145 481 -528 924 -1094 1265 -545 329 -1259 540 -2026 599 -268 21
-751 11 -1021 -20 -629 -74 -1220 -253 -1696 -515 -497 -273 -895 -656 -1093
-1053 -177 -357 -224 -705 -142 -1072 142 -636 717 -1233 1526 -1585 47 -21
86 -38 88 -40 1 -1 -3 -15 -9 -32 -8 -25 -21 -35 -67 -51 -255 -92 -590 -110
-1072 -58 -135 14 -252 26 -261 26 -9 0 -32 24 -53 54 -20 30 -55 66 -77 81
-21 15 -39 29 -39 31 0 1 28 18 62 36 67 35 268 223 268 251 0 23 -21 35 -91
52 -160 37 -322 10 -581 -99 l-108 -45 6 87 c13 170 44 71 -509 1587 -382
1045 -834 2284 -1024 2805 -85 234 -170 458 -189 498 -96 209 -250 365 -518
523 -55 33 -103 59 -107 59 -3 0 -11 -6 -17 -12z"/>
<path d="M1842 11169 l-264 -231 34 -36 c18 -20 208 -215 421 -434 l389 -397
201 176 c111 97 210 184 220 193 18 17 4 36 -353 489 -204 259 -374 471 -378
471 -4 0 -125 -104 -270 -231z"/>
<path d="M3865 11002 c-16 -10 -148 -81 -293 -157 -144 -77 -261 -142 -260
-146 11 -28 284 -538 288 -539 8 0 573 300 584 310 7 7 -272 550 -284 550 -3
0 -18 -8 -35 -18z"/>
<path d="M2715 10174 c-135 -119 -245 -220 -243 -224 2 -5 92 -110 201 -234
120 -137 203 -223 210 -219 6 4 121 103 255 221 l244 214 -25 27 c-13 14 -104
117 -201 229 -98 111 -182 202 -187 202 -4 0 -119 -97 -254 -216z"/>
</g>
</svg>
